<svg width="160" height="50" viewBox="0 0 160 50" fill="none" xmlns="http://www.w3.org/2000/svg">
<path d="M155 0H5C2.23858 0 0 2.23858 0 5V45C0 47.7614 2.23858 50 5 50H155C157.761 50 160 47.7614 160 45V5C160 2.23858 157.761 0 155 0Z" fill="black"/>
<path d="M29.3501 10L31.9701 12.975C31.9701 12.975 34.2701 12.335 35.3563 13.4225C36.4413 14.51 37.3363 15.47 37.3363 15.47L36.6338 17.1962L37.5276 19.755C37.5276 19.755 34.8976 29.73 34.5901 30.9488C33.9826 33.3475 33.5676 34.2738 31.8426 35.49C30.0708 36.7298 28.2819 37.945 26.4763 39.135C25.9651 39.455 25.3263 40 24.7513 40C24.1763 40 23.5388 39.455 23.0263 39.135C21.2207 37.945 19.4318 36.7299 17.6601 35.49C15.9351 34.2738 15.5201 33.3475 14.9138 30.9488C14.6051 29.73 11.9751 19.755 11.9751 19.755L12.8688 17.1962L12.1663 15.47C12.1663 15.47 13.0613 14.51 14.1476 13.4225C15.2326 12.335 17.5326 12.975 17.5326 12.975L20.1513 10H29.3513H29.3501ZM24.7513 28.67C24.5763 28.67 23.4538 29.0662 22.5538 29.5325C21.6538 29.9988 21.0013 30.3288 20.7926 30.46C20.5838 30.59 20.7113 30.8363 20.9013 30.9713C21.0913 31.105 23.6438 33.0837 23.8926 33.3037C24.1401 33.5225 24.5038 33.8838 24.7513 33.8838C24.9988 33.8838 25.3638 33.5212 25.6113 33.3037C25.8588 33.085 28.4113 31.105 28.6013 30.9713C28.7913 30.8363 28.9188 30.59 28.7101 30.4588C28.5013 30.3288 27.8488 29.9988 26.9476 29.5325C26.0476 29.0662 24.9263 28.67 24.7513 28.67ZM24.7513 14.5725C24.7513 14.5725 24.2401 14.5738 23.4738 14.83C22.7076 15.0863 21.8763 15.405 21.4938 15.405C21.1101 15.405 18.2676 14.8625 18.2676 14.8625C18.2676 14.8625 14.8988 18.94 14.8988 19.8112C14.8988 20.6825 15.3226 20.9125 15.7488 21.365L18.2738 24.0513C18.5138 24.305 19.0113 24.69 18.7188 25.3837C18.4251 26.0775 17.9938 26.9587 18.4738 27.855C18.9538 28.75 19.7763 29.3475 20.3038 29.2488C20.8301 29.1488 22.0688 28.5012 22.5238 28.2062C22.9788 27.91 24.4213 26.7188 24.4213 26.2638C24.4213 25.8075 22.9301 24.9888 22.6551 24.8038C22.3801 24.6163 21.1226 23.8975 21.0963 23.6162C21.0713 23.3325 21.0813 23.25 21.4513 22.5525C21.8226 21.8538 22.4901 20.9225 22.3788 20.3025C22.2676 19.6837 21.1913 19.3612 20.4226 19.07C19.6538 18.78 18.1738 18.2312 17.9888 18.145C17.8038 18.06 17.8513 17.9788 18.4126 17.9262C18.9726 17.8725 20.5613 17.6613 21.2776 17.8612C21.9938 18.0612 23.2176 18.365 23.3176 18.5262C23.4163 18.6888 23.5038 18.6938 23.4013 19.25C23.3001 19.8063 22.7763 22.4762 22.7251 22.95C22.6751 23.425 22.5751 23.7375 23.0851 23.855C23.5963 23.9725 24.4563 24.175 24.7513 24.175C25.0463 24.175 25.9063 23.9725 26.4176 23.855C26.9276 23.7387 26.8288 23.425 26.7776 22.9513C26.7276 22.4762 26.2026 19.8063 26.1013 19.25C25.9988 18.6938 26.0863 18.6875 26.1851 18.5262C26.2851 18.365 27.5088 18.0612 28.2251 17.8612C28.9413 17.6613 30.5313 17.8725 31.0901 17.9262C31.6513 17.9788 31.6988 18.06 31.5138 18.145C31.3288 18.2312 29.8488 18.78 29.0801 19.07C28.3113 19.3612 27.2351 19.6825 27.1238 20.3025C27.0113 20.9225 27.6801 21.8538 28.0513 22.5525C28.4226 23.25 28.4313 23.3325 28.4063 23.615C28.3813 23.8975 27.1238 24.6175 26.8476 24.8025C26.5726 24.99 25.0813 25.8075 25.0813 26.2638C25.0813 26.7188 26.5238 27.91 26.9788 28.2062C27.4338 28.5012 28.6726 29.15 29.1988 29.2488C29.7263 29.3475 30.5488 28.7488 31.0288 27.855C31.5088 26.96 31.0776 26.0775 30.7851 25.3837C30.4913 24.69 30.9888 24.305 31.2288 24.0513L33.7538 21.365C34.1801 20.9125 34.6038 20.6825 34.6038 19.8112C34.6038 18.94 31.2351 14.8612 31.2351 14.8612C31.2351 14.8612 28.3926 15.4062 28.0101 15.4062C27.6263 15.4062 26.7951 15.0863 26.0288 14.83C25.2626 14.5738 24.7513 14.5725 24.7513 14.5725Z" fill="url(#paint0_linear_30300_18396)"/>
<path d="M49.3084 23V9.73455H57.9361V11.749H51.7115V15.3503H57.4892V17.3648H51.7115V20.9856H57.988V23H49.3084ZM62.2014 13.0509L64.2094 16.7235L66.2497 13.0509H68.7305L65.7315 18.0255L68.7823 23H66.3145L64.2094 19.4181L62.1237 23H59.6364L62.6678 18.0255L59.7141 13.0509H62.2014ZM75.5122 13.0509V14.8645H69.7928V13.0509H75.5122ZM71.2048 10.6673H73.5496V20.0075C73.5496 20.3227 73.5971 20.5645 73.6921 20.733C73.7914 20.897 73.921 21.0093 74.0807 21.0698C74.2405 21.1302 74.4176 21.1605 74.6119 21.1605C74.7587 21.1605 74.8926 21.1497 75.0135 21.1281C75.1387 21.1065 75.2337 21.087 75.2985 21.0698L75.6936 22.9028C75.5684 22.946 75.3891 22.9935 75.156 23.0453C74.9271 23.0972 74.6464 23.1274 74.3139 23.136C73.7266 23.1533 73.1977 23.0648 72.727 22.8705C72.2563 22.6718 71.8828 22.3652 71.6064 21.9507C71.3344 21.5361 71.2005 21.018 71.2048 20.3961V10.6673ZM81.7709 23.1943C80.7734 23.1943 79.9119 22.987 79.1865 22.5725C78.4653 22.1536 77.9104 21.562 77.5218 20.7977C77.1332 20.0291 76.9388 19.1244 76.9388 18.0838C76.9388 17.0603 77.1332 16.1622 77.5218 15.3892C77.9147 14.6119 78.4632 14.0074 79.167 13.5756C79.8709 13.1394 80.6978 12.9214 81.6478 12.9214C82.261 12.9214 82.8396 13.0207 83.3837 13.2193C83.9321 13.4136 84.4158 13.7159 84.8346 14.1261C85.2578 14.5364 85.5903 15.0589 85.8321 15.6936C86.074 16.3241 86.1949 17.0755 86.1949 17.9477V18.6667H78.04V17.0863H83.9472C83.9429 16.6372 83.8458 16.2377 83.6558 15.888C83.4658 15.5339 83.2002 15.2553 82.8591 15.0524C82.5222 14.8494 82.1293 14.748 81.6802 14.748C81.2009 14.748 80.7799 14.8645 80.4171 15.0977C80.0544 15.3266 79.7716 15.6289 79.5686 16.0045C79.37 16.3759 79.2685 16.784 79.2642 17.2288V18.6084C79.2642 19.187 79.37 19.6836 79.5816 20.0982C79.7932 20.5084 80.089 20.8236 80.469 21.0439C80.849 21.2598 81.2937 21.3677 81.8033 21.3677C82.1444 21.3677 82.4532 21.3202 82.7295 21.2252C83.0059 21.1259 83.2455 20.9813 83.4485 20.7913C83.6515 20.6013 83.8047 20.3659 83.9084 20.0852L86.0977 20.3314C85.9595 20.91 85.6961 21.4152 85.3075 21.847C84.9232 22.2745 84.4309 22.607 83.8307 22.8445C83.2304 23.0777 82.5438 23.1943 81.7709 23.1943ZM90.5233 17.1705V23H88.1785V13.0509H90.4197V14.7415H90.5363C90.7651 14.1844 91.13 13.7418 91.6309 13.4136C92.1361 13.0855 92.7601 12.9214 93.5028 12.9214C94.1894 12.9214 94.7875 13.0682 95.297 13.3618C95.8109 13.6555 96.2082 14.0808 96.4889 14.6378C96.7739 15.1949 96.9142 15.8707 96.9099 16.6652V23H94.5651V17.028C94.5651 16.363 94.3924 15.8426 94.0469 15.4669C93.7058 15.0912 93.233 14.9034 92.6284 14.9034C92.2182 14.9034 91.8533 14.9941 91.5338 15.1755C91.2185 15.3525 90.9702 15.6094 90.7889 15.9463C90.6118 16.2831 90.5233 16.6911 90.5233 17.1705ZM104.262 13.0509V14.8645H98.5422V13.0509H104.262ZM99.9542 10.6673H102.299V20.0075C102.299 20.3227 102.346 20.5645 102.441 20.733C102.541 20.897 102.67 21.0093 102.83 21.0698C102.99 21.1302 103.167 21.1605 103.361 21.1605C103.508 21.1605 103.642 21.1497 103.763 21.1281C103.888 21.1065 103.983 21.087 104.048 21.0698L104.443 22.9028C104.318 22.946 104.139 22.9935 103.905 23.0453C103.676 23.0972 103.396 23.1274 103.063 23.136C102.476 23.1533 101.947 23.0648 101.476 22.8705C101.006 22.6718 100.632 22.3652 100.356 21.9507C100.084 21.5361 99.9499 21.018 99.9542 20.3961V10.6673ZM106.223 23V13.0509H108.567V23H106.223ZM107.401 11.6389C107.03 11.6389 106.711 11.5158 106.443 11.2697C106.175 11.0192 106.041 10.7191 106.041 10.3693C106.041 10.0152 106.175 9.71511 106.443 9.46898C106.711 9.21852 107.03 9.0933 107.401 9.0933C107.777 9.0933 108.097 9.21852 108.36 9.46898C108.628 9.71511 108.762 10.0152 108.762 10.3693C108.762 10.7191 108.628 11.0192 108.36 11.2697C108.097 11.5158 107.777 11.6389 107.401 11.6389ZM115.318 23.1943C114.347 23.1943 113.505 22.9806 112.792 22.5531C112.08 22.1256 111.527 21.5275 111.134 20.7589C110.745 19.9902 110.551 19.092 110.551 18.0643C110.551 17.0366 110.745 16.1362 111.134 15.3633C111.527 14.5903 112.08 13.9901 112.792 13.5626C113.505 13.1351 114.347 12.9214 115.318 12.9214C116.29 12.9214 117.132 13.1351 117.844 13.5626C118.557 13.9901 119.108 14.5903 119.496 15.3633C119.889 16.1362 120.086 17.0366 120.086 18.0643C120.086 19.092 119.889 19.9902 119.496 20.7589C119.108 21.5275 118.557 22.1256 117.844 22.5531C117.132 22.9806 116.29 23.1943 115.318 23.1943ZM115.331 21.3159C115.858 21.3159 116.299 21.1712 116.653 20.8819C117.007 20.5883 117.27 20.1953 117.443 19.7031C117.62 19.2108 117.708 18.6624 117.708 18.0578C117.708 17.449 117.62 16.8984 117.443 16.4061C117.27 15.9095 117.007 15.5144 116.653 15.2208C116.299 14.9272 115.858 14.7803 115.331 14.7803C114.791 14.7803 114.342 14.9272 113.984 15.2208C113.63 15.5144 113.364 15.9095 113.187 16.4061C113.015 16.8984 112.928 17.449 112.928 18.0578C112.928 18.6624 113.015 19.2108 113.187 19.7031C113.364 20.1953 113.63 20.5883 113.984 20.8819C114.342 21.1712 114.791 21.3159 115.331 21.3159ZM124.42 17.1705V23H122.076V13.0509H124.317V14.7415H124.433C124.662 14.1844 125.027 13.7418 125.528 13.4136C126.033 13.0855 126.657 12.9214 127.4 12.9214C128.087 12.9214 128.685 13.0682 129.194 13.3618C129.708 13.6555 130.105 14.0808 130.386 14.6378C130.671 15.1949 130.811 15.8707 130.807 16.6652V23H128.462V17.028C128.462 16.363 128.29 15.8426 127.944 15.4669C127.603 15.0912 127.13 14.9034 126.526 14.9034C126.115 14.9034 125.75 14.9941 125.431 15.1755C125.116 15.3525 124.867 15.6094 124.686 15.9463C124.509 16.2831 124.42 16.6911 124.42 17.1705ZM49.1985 40V29.0909H53.1935C53.9677 29.0909 54.6087 29.2187 55.1165 29.4744C55.6243 29.7266 56.0043 30.0692 56.2564 30.5025C56.5085 30.9322 56.6346 31.4169 56.6346 31.9567C56.6346 32.4112 56.5511 32.7947 56.3842 33.1072C56.2173 33.4162 55.9936 33.6648 55.7131 33.853C55.4361 34.0376 55.1307 34.1726 54.7969 34.2578V34.3643C55.1591 34.3821 55.5124 34.4993 55.8569 34.7159C56.2049 34.929 56.4925 35.2326 56.7198 35.6268C56.9471 36.021 57.0607 36.5004 57.0607 37.065C57.0607 37.6225 56.9293 38.1232 56.6665 38.5671C56.4073 39.0075 56.006 39.3572 55.4627 39.6165C54.9194 39.8722 54.2251 40 53.38 40H49.1985ZM50.8445 38.5884H53.2202C54.0085 38.5884 54.5732 38.4357 54.9141 38.1303C55.255 37.8249 55.4254 37.4432 55.4254 36.9851C55.4254 36.6406 55.3384 36.3246 55.1644 36.0369C54.9904 35.7493 54.7418 35.5202 54.4187 35.3498C54.0991 35.1793 53.7191 35.0941 53.2788 35.0941H50.8445V38.5884ZM50.8445 33.8104H53.0497C53.419 33.8104 53.7511 33.7393 54.0458 33.5973C54.3441 33.4553 54.5803 33.2564 54.7543 33.0007C54.9318 32.7415 55.0206 32.4361 55.0206 32.0845C55.0206 31.6335 54.8626 31.2553 54.5465 30.9499C54.2305 30.6445 53.7457 30.4918 53.0923 30.4918H50.8445V33.8104ZM58.8851 40V31.8182H60.4245V33.1179H60.5098C60.6589 32.6776 60.9217 32.3313 61.2981 32.0792C61.6781 31.8235 62.1078 31.6957 62.5872 31.6957C62.6866 31.6957 62.8038 31.6992 62.9387 31.7063C63.0772 31.7134 63.1855 31.7223 63.2637 31.733V33.2564C63.1998 33.2386 63.0861 33.2191 62.9228 33.1978C62.7594 33.1729 62.5961 33.1605 62.4327 33.1605C62.0563 33.1605 61.7207 33.2404 61.426 33.4002C61.1348 33.5565 60.9039 33.7749 60.7335 34.0554C60.563 34.3324 60.4778 34.6484 60.4778 35.0036V40H58.8851ZM66.9498 40.1811C66.4313 40.1811 65.9625 40.0852 65.5435 39.8935C65.1245 39.6982 64.7924 39.4158 64.5474 39.0465C64.3059 38.6772 64.1852 38.2244 64.1852 37.6882C64.1852 37.2266 64.274 36.8466 64.4515 36.5483C64.6291 36.25 64.8688 36.0138 65.1706 35.8398C65.4725 35.6658 65.8098 35.5344 66.1827 35.4457C66.5556 35.3569 66.9355 35.2894 67.3226 35.2433C67.8127 35.1864 68.2104 35.1403 68.5158 35.1048C68.8212 35.0657 69.0431 35.0036 69.1816 34.9183C69.3201 34.8331 69.3894 34.6946 69.3894 34.5028V34.4656C69.3894 34.0004 69.258 33.6399 68.9952 33.3842C68.736 33.1286 68.3489 33.0007 67.834 33.0007C67.2978 33.0007 66.8752 33.1197 66.5662 33.3576C66.2608 33.592 66.0495 33.853 65.9324 34.1406L64.4355 33.7997C64.6131 33.3026 64.8723 32.9013 65.2132 32.5959C65.5577 32.2869 65.9537 32.0632 66.4011 31.9247C66.8485 31.7827 67.3191 31.7116 67.8127 31.7116C68.1394 31.7116 68.4856 31.7507 68.8514 31.8288C69.2207 31.9034 69.5652 32.0419 69.8848 32.2443C70.2079 32.4467 70.4725 32.7362 70.6784 33.1126C70.8844 33.4854 70.9874 33.9702 70.9874 34.5668V40H69.432V38.8814H69.3681C69.2651 39.0874 69.1106 39.2898 68.9047 39.4886C68.6987 39.6875 68.4341 39.8526 68.111 39.984C67.7878 40.1154 67.4007 40.1811 66.9498 40.1811ZM67.296 38.9027C67.7363 38.9027 68.1127 38.8157 68.4252 38.6417C68.7413 38.4677 68.981 38.2404 69.1444 37.9599C69.3113 37.6758 69.3947 37.3722 69.3947 37.049V35.9943C69.3379 36.0511 69.2278 36.1044 69.0645 36.1541C68.9047 36.2003 68.7218 36.2411 68.5158 36.2766C68.3098 36.3086 68.1092 36.3388 67.9139 36.3672C67.7186 36.392 67.5552 36.4134 67.4238 36.4311C67.1149 36.4702 66.8326 36.5359 66.5769 36.6282C66.3248 36.7205 66.1223 36.8537 65.9696 37.0277C65.8205 37.1982 65.7459 37.4254 65.7459 37.7095C65.7459 38.1037 65.8915 38.402 66.1827 38.6044C66.4739 38.8033 66.845 38.9027 67.296 38.9027ZM79.8151 31.8182L76.8481 40H75.1436L72.1713 31.8182H73.8811L75.9532 38.1143H76.0384L78.1052 31.8182H79.8151ZM84.5598 40.1651C83.7537 40.1651 83.0595 39.9929 82.4771 39.6484C81.8983 39.3004 81.4508 38.8121 81.1348 38.1836C80.8223 37.5515 80.666 36.8111 80.666 35.9624C80.666 35.1243 80.8223 34.3857 81.1348 33.7464C81.4508 33.1072 81.8912 32.6083 82.4558 32.2496C83.024 31.891 83.688 31.7116 84.448 31.7116C84.9096 31.7116 85.3571 31.788 85.7903 31.9407C86.2235 32.0934 86.6124 32.3331 86.9569 32.6598C87.3013 32.9865 87.573 33.4109 87.7718 33.9329C87.9707 34.4513 88.0701 35.0817 88.0701 35.8239V36.3885H81.5662V35.1953H86.5094C86.5094 34.7763 86.4242 34.4052 86.2537 34.082C86.0833 33.7553 85.8436 33.4979 85.5346 33.3097C85.2292 33.1214 84.8706 33.0273 84.4586 33.0273C84.0112 33.0273 83.6206 33.1374 83.2868 33.3576C82.9565 33.5742 82.7008 33.8583 82.5197 34.2099C82.3422 34.5579 82.2534 34.9361 82.2534 35.3445V36.2766C82.2534 36.8235 82.3493 37.2887 82.541 37.6722C82.7363 38.0558 83.008 38.3487 83.356 38.5511C83.704 38.75 84.1106 38.8494 84.5758 38.8494C84.8777 38.8494 85.1529 38.8068 85.4015 38.7216C85.65 38.6328 85.8649 38.5014 86.046 38.3274C86.2271 38.1534 86.3656 37.9386 86.4615 37.6829L87.9689 37.9545C87.8482 38.3984 87.6316 38.7873 87.3191 39.1211C87.0101 39.4513 86.6213 39.7088 86.1525 39.8935C85.6873 40.0746 85.1564 40.1651 84.5598 40.1651ZM93.9348 40V29.0909H97.9299C98.704 29.0909 99.345 29.2187 99.8528 29.4744C100.361 29.7266 100.741 30.0692 100.993 30.5025C101.245 30.9322 101.371 31.4169 101.371 31.9567C101.371 32.4112 101.287 32.7947 101.121 33.1072C100.954 33.4162 100.73 33.6648 100.449 33.853C100.172 34.0376 99.867 34.1726 99.5332 34.2578V34.3643C99.8954 34.3821 100.249 34.4993 100.593 34.7159C100.941 34.929 101.229 35.2326 101.456 35.6268C101.683 36.021 101.797 36.5004 101.797 37.065C101.797 37.6225 101.666 38.1232 101.403 38.5671C101.144 39.0075 100.742 39.3572 100.199 39.6165C99.6557 39.8722 98.9615 40 98.1163 40H93.9348ZM95.5808 38.5884H97.9565C98.7449 38.5884 99.3095 38.4357 99.6504 38.1303C99.9913 37.8249 100.162 37.4432 100.162 36.9851C100.162 36.6406 100.075 36.3246 99.9007 36.0369C99.7267 35.7493 99.4782 35.5202 99.155 35.3498C98.8354 35.1793 98.4554 35.0941 98.0151 35.0941H95.5808V38.5884ZM95.5808 33.8104H97.786C98.1554 33.8104 98.4874 33.7393 98.7821 33.5973C99.0804 33.4553 99.3166 33.2564 99.4906 33.0007C99.6681 32.7415 99.7569 32.4361 99.7569 32.0845C99.7569 31.6335 99.5989 31.2553 99.2828 30.9499C98.9668 30.6445 98.4821 30.4918 97.8287 30.4918H95.5808V33.8104ZM103.621 40V31.8182H105.161V33.1179H105.246C105.395 32.6776 105.658 32.3313 106.034 32.0792C106.414 31.8235 106.844 31.6957 107.324 31.6957C107.423 31.6957 107.54 31.6992 107.675 31.7063C107.814 31.7134 107.922 31.7223 108 31.733V33.2564C107.936 33.2386 107.822 33.2191 107.659 33.1978C107.496 33.1729 107.332 33.1605 107.169 33.1605C106.793 33.1605 106.457 33.2404 106.162 33.4002C105.871 33.5565 105.64 33.7749 105.47 34.0554C105.299 34.3324 105.214 34.6484 105.214 35.0036V40H103.621ZM112.532 40.1651C111.765 40.1651 111.095 39.9893 110.524 39.6378C109.952 39.2862 109.508 38.7944 109.192 38.1623C108.876 37.5302 108.718 36.7915 108.718 35.9464C108.718 35.0977 108.876 34.3555 109.192 33.7198C109.508 33.0842 109.952 32.5906 110.524 32.239C111.095 31.8874 111.765 31.7116 112.532 31.7116C113.299 31.7116 113.968 31.8874 114.54 32.239C115.112 32.5906 115.555 33.0842 115.872 33.7198C116.188 34.3555 116.346 35.0977 116.346 35.9464C116.346 36.7915 116.188 37.5302 115.872 38.1623C115.555 38.7944 115.112 39.2862 114.54 39.6378C113.968 39.9893 113.299 40.1651 112.532 40.1651ZM112.537 38.8281C113.034 38.8281 113.446 38.6967 113.773 38.4339C114.1 38.1712 114.341 37.8214 114.497 37.3846C114.657 36.9478 114.737 36.4666 114.737 35.9411C114.737 35.419 114.657 34.9396 114.497 34.5028C114.341 34.0625 114.1 33.7092 113.773 33.4428C113.446 33.1765 113.034 33.0433 112.537 33.0433C112.036 33.0433 111.621 33.1765 111.291 33.4428C110.964 33.7092 110.721 34.0625 110.561 34.5028C110.405 34.9396 110.326 35.419 110.326 35.9411C110.326 36.4666 110.405 36.9478 110.561 37.3846C110.721 37.8214 110.964 38.1712 111.291 38.4339C111.621 38.6967 112.036 38.8281 112.537 38.8281ZM119.648 40L117.241 31.8182H118.886L120.49 37.8267H120.57L122.178 31.8182H123.824L125.422 37.8001H125.502L127.095 31.8182H128.741L126.339 40H124.714L123.052 34.0927H122.929L121.267 40H119.648ZM136.383 33.8157L134.94 34.0714C134.879 33.8867 134.784 33.7109 134.652 33.544C134.524 33.3771 134.35 33.2404 134.13 33.1339C133.91 33.0273 133.635 32.9741 133.305 32.9741C132.854 32.9741 132.477 33.0753 132.175 33.2777C131.873 33.4766 131.722 33.734 131.722 34.0501C131.722 34.3235 131.824 34.5437 132.026 34.7106C132.229 34.8775 132.555 35.0142 133.006 35.1207L134.306 35.419C135.059 35.593 135.62 35.8612 135.989 36.2234C136.358 36.5856 136.543 37.0561 136.543 37.6349C136.543 38.125 136.401 38.5618 136.117 38.9453C135.836 39.3253 135.444 39.6236 134.94 39.8402C134.439 40.0568 133.858 40.1651 133.198 40.1651C132.282 40.1651 131.534 39.9698 130.955 39.5792C130.377 39.185 130.021 38.6257 129.89 37.9013L131.43 37.6669C131.525 38.0682 131.722 38.3718 132.021 38.5778C132.319 38.7802 132.708 38.8814 133.187 38.8814C133.709 38.8814 134.127 38.7731 134.439 38.5565C134.752 38.3363 134.908 38.0682 134.908 37.7521C134.908 37.4964 134.812 37.2816 134.62 37.1076C134.432 36.9336 134.143 36.8022 133.752 36.7134L132.367 36.4098C131.604 36.2358 131.039 35.9588 130.673 35.5788C130.311 35.1989 130.13 34.7177 130.13 34.1353C130.13 33.6523 130.265 33.2298 130.535 32.8675C130.805 32.5053 131.177 32.223 131.653 32.0206C132.129 31.8146 132.674 31.7116 133.289 31.7116C134.173 31.7116 134.869 31.9034 135.377 32.2869C135.884 32.6669 136.22 33.1765 136.383 33.8157ZM141.821 40.1651C141.014 40.1651 140.32 39.9929 139.738 39.6484C139.159 39.3004 138.712 38.8121 138.396 38.1836C138.083 37.5515 137.927 36.8111 137.927 35.9624C137.927 35.1243 138.083 34.3857 138.396 33.7464C138.712 33.1072 139.152 32.6083 139.717 32.2496C140.285 31.891 140.949 31.7116 141.709 31.7116C142.17 31.7116 142.618 31.788 143.051 31.9407C143.484 32.0934 143.873 32.3331 144.218 32.6598C144.562 32.9865 144.834 33.4109 145.033 33.9329C145.231 34.4513 145.331 35.0817 145.331 35.8239V36.3885H138.827V35.1953H143.77C143.77 34.7763 143.685 34.4052 143.514 34.082C143.344 33.7553 143.104 33.4979 142.795 33.3097C142.49 33.1214 142.131 33.0273 141.719 33.0273C141.272 33.0273 140.881 33.1374 140.547 33.3576C140.217 33.5742 139.962 33.8583 139.78 34.2099C139.603 34.5579 139.514 34.9361 139.514 35.3445V36.2766C139.514 36.8235 139.61 37.2887 139.802 37.6722C139.997 38.0558 140.269 38.3487 140.617 38.5511C140.965 38.75 141.371 38.8494 141.837 38.8494C142.138 38.8494 142.414 38.8068 142.662 38.7216C142.911 38.6328 143.126 38.5014 143.307 38.3274C143.488 38.1534 143.626 37.9386 143.722 37.6829L145.23 37.9545C145.109 38.3984 144.892 38.7873 144.58 39.1211C144.271 39.4513 143.882 39.7088 143.413 39.8935C142.948 40.0746 142.417 40.1651 141.821 40.1651ZM147.098 40V31.8182H148.637V33.1179H148.723C148.872 32.6776 149.135 32.3313 149.511 32.0792C149.891 31.8235 150.321 31.6957 150.8 31.6957C150.9 31.6957 151.017 31.6992 151.152 31.7063C151.29 31.7134 151.398 31.7223 151.477 31.733V33.2564C151.413 33.2386 151.299 33.2191 151.136 33.1978C150.972 33.1729 150.809 33.1605 150.646 33.1605C150.269 33.1605 149.934 33.2404 149.639 33.4002C149.348 33.5565 149.117 33.7749 148.946 34.0554C148.776 34.3324 148.691 34.6484 148.691 35.0036V40H147.098Z" fill="white"/>
<defs>
<linearGradient id="paint0_linear_30300_18396" x1="39.1251" y1="8.125" x2="10.3751" y2="41.875" gradientUnits="userSpaceOnUse">
<stop stop-color="#EC472D"/>
<stop offset="1" stop-color="#EC472D" stop-opacity="0.32"/>
</linearGradient>
</defs>
</svg>
