<svg width="160" height="50" viewBox="0 0 160 50" fill="none" xmlns="http://www.w3.org/2000/svg">
<path d="M155 0H5C2.23858 0 0 2.23858 0 5V45C0 47.7614 2.23858 50 5 50H155C157.761 50 160 47.7614 160 45V5C160 2.23858 157.761 0 155 0Z" fill="black"/>
<g clip-path="url(#clip0_30300_18396)">
<path d="M38 19.8617L37.0555 17.3125L37.7055 15.85C37.7867 15.657 37.7461 15.4437 37.6039 15.2914L35.8266 13.4938C35.0445 12.7117 33.8867 12.4375 32.8406 12.8031L32.343 12.9758L29.6211 10.0305L25.0203 10H24.9898L20.3586 10.0406L17.6469 13.0063L17.1594 12.8336C16.1031 12.4578 14.9352 12.732 14.1531 13.5344L12.3453 15.3625C12.2234 15.4844 12.193 15.657 12.2539 15.8094L12.9344 17.3328L12 19.882L12.6094 22.1875L15.3719 32.6789C15.6867 33.8875 16.418 34.9438 17.4437 35.675C17.4437 35.675 20.7953 38.0414 24.0961 40.1844C24.3906 40.3773 24.6953 40.5094 25.0203 40.5094C25.3453 40.5094 25.65 40.3773 25.9445 40.1844C29.6617 37.7469 32.5969 35.6648 32.5969 35.6648C33.6125 34.9336 34.3438 33.8773 34.6586 32.6687L37.4008 22.1773L38 19.8617Z" fill="#F15A22"/>
<path opacity="0.15" d="M15.5039 33.1257L12 20.1054L13.0258 17.5561L12.3148 15.6671L14.0109 13.9405C14.5695 13.4428 15.6664 13.2702 16.1742 13.5647L18.825 15.0882L22.2781 15.8905L24.9695 14.7733L25.193 37.8991C25.1523 41.2304 25.3656 40.8749 22.918 39.3007L16.875 35.2483C16.225 34.6288 15.7273 33.928 15.5039 33.1257Z" fill="white"/>
<path d="M25.6094 28.7689C25.4875 28.7181 25.3555 28.6775 25.3148 28.6775H24.9898C24.9492 28.6775 24.8172 28.7181 24.6953 28.7689L23.375 29.3173C23.2531 29.3681 23.05 29.4595 22.9281 29.5205L20.9375 30.5564C20.8156 30.6173 20.8055 30.7291 20.9172 30.8103L22.6742 32.0494C22.7859 32.1306 22.9586 32.2626 23.0601 32.3541L23.8422 33.0244C23.9437 33.1158 24.1062 33.258 24.2078 33.3494L24.9594 34.0197C25.0609 34.1111 25.2234 34.1111 25.325 34.0197L26.0969 33.3494C26.1984 33.258 26.3609 33.1158 26.4625 33.0244L27.2445 32.3439C27.3461 32.2525 27.5187 32.1205 27.6304 32.0392L29.3875 30.79C29.4992 30.7087 29.489 30.597 29.3672 30.5361L27.3765 29.5205C27.2547 29.4595 27.0515 29.3681 26.9297 29.3173L25.6094 28.7689Z" fill="white"/>
<path d="M35.1372 20.3145C35.1778 20.1825 35.1778 20.1317 35.1778 20.1317C35.1778 19.9997 35.1677 19.7762 35.1474 19.6442L35.0458 19.3497C34.9849 19.2278 34.8833 19.0348 34.8021 18.9231L33.6544 17.227C33.5833 17.1153 33.4513 16.9426 33.3599 16.8309L31.8771 14.9723C31.7958 14.8708 31.7146 14.7794 31.7044 14.7895H31.6841C31.6841 14.7895 31.5724 14.8098 31.4403 14.8301L29.1755 15.277C29.0435 15.3075 28.8302 15.3481 28.6982 15.3684L28.6575 15.3786C28.5255 15.3989 28.3122 15.3887 28.1802 15.3481L26.281 14.7387C26.1489 14.6981 25.9357 14.6372 25.8138 14.6067C25.8138 14.6067 25.4278 14.5153 25.113 14.5254C24.7982 14.5254 24.4122 14.6067 24.4122 14.6067C24.2802 14.6372 24.0669 14.6981 23.945 14.7387L22.0458 15.3481C21.9138 15.3887 21.7005 15.3989 21.5685 15.3786L21.5278 15.3684C21.3958 15.3481 21.1825 15.2973 21.0505 15.277L18.7653 14.8504C18.6333 14.82 18.5216 14.8098 18.5216 14.8098H18.5013C18.4911 14.8098 18.4099 14.8911 18.3286 14.9926L16.8458 16.8512C16.7646 16.9528 16.6325 17.1356 16.5513 17.2473L15.4036 18.9434C15.3325 19.0551 15.2208 19.2481 15.1599 19.37L15.0583 19.6645C15.038 19.7965 15.0177 20.02 15.0278 20.152C15.0278 20.152 15.0278 20.1926 15.0685 20.3348C15.1396 20.5786 15.3122 20.802 15.3122 20.802C15.3935 20.9036 15.5458 21.0762 15.6372 21.1676L18.9989 24.7426C19.0903 24.8442 19.1208 25.027 19.07 25.1489L18.3693 26.8044C18.3185 26.9262 18.3083 27.1294 18.3591 27.2614L18.5521 27.7794C18.7146 28.2161 18.9888 28.602 19.3544 28.8965L20.0349 29.445C20.1364 29.5262 20.3193 29.5567 20.4411 29.4958L22.5943 28.47C22.7161 28.409 22.8989 28.2872 23.0005 28.1958L24.5443 26.8044C24.7677 26.6012 24.7778 26.2559 24.5747 26.0325L21.3349 23.8489C21.2232 23.7778 21.1825 23.6153 21.2435 23.4934L22.6653 20.8122C22.7263 20.6903 22.7364 20.4973 22.6857 20.3754L22.513 19.9794C22.4622 19.8575 22.3099 19.7153 22.188 19.6645L18.0138 18.1004C17.8919 18.0497 17.8919 17.9989 18.0239 17.9887L20.7153 17.7348C20.8474 17.7247 21.0607 17.745 21.1927 17.7754L23.5896 18.4458C23.7216 18.4864 23.8028 18.6184 23.7825 18.7504L22.9497 23.3106C22.9294 23.4426 22.9294 23.6254 22.9599 23.727C22.9903 23.8286 23.1224 23.92 23.2544 23.9504L24.92 24.3059C25.0521 24.3364 25.2653 24.3364 25.3974 24.3059L26.9513 23.9504C27.0833 23.92 27.2153 23.8184 27.2458 23.727C27.2763 23.6356 27.2864 23.4426 27.256 23.3106L26.4333 18.7504C26.413 18.6184 26.4943 18.4762 26.6263 18.4458L29.0232 17.7754C29.1552 17.7348 29.3685 17.7247 29.5005 17.7348L32.1919 17.9887C32.3239 17.9989 32.3341 18.0497 32.2021 18.1004L28.0278 19.6848C27.906 19.7356 27.7536 19.8676 27.7028 19.9997L27.5302 20.3958C27.4794 20.5176 27.4794 20.7208 27.5505 20.8325L28.9825 23.5137C29.0435 23.6356 29.0028 23.7879 28.8911 23.8692L25.6513 26.0629C25.438 26.2762 25.4583 26.6317 25.6818 26.8348L27.2255 28.2262C27.3271 28.3176 27.5099 28.4395 27.6318 28.4903L29.795 29.5161C29.9169 29.577 30.0997 29.5465 30.2013 29.4653L30.8818 28.9067C31.2474 28.6122 31.5216 28.2262 31.6739 27.7895L31.8669 27.2715C31.9177 27.1497 31.9075 26.9364 31.8568 26.8145L31.156 25.159C31.1052 25.0372 31.1357 24.8544 31.2271 24.7528L34.5888 21.1778C34.6802 21.0762 34.8224 20.9137 34.9138 20.8122C34.8935 20.7817 35.0763 20.5583 35.1372 20.3145Z" fill="white"/>
</g>
<path d="M49.3084 23V9.73455H57.9361V11.749H51.7115V15.3503H57.4892V17.3648H51.7115V20.9856H57.988V23H49.3084ZM62.2014 13.0509L64.2094 16.7235L66.2497 13.0509H68.7305L65.7315 18.0255L68.7823 23H66.3145L64.2094 19.4181L62.1237 23H59.6364L62.6678 18.0255L59.7141 13.0509H62.2014ZM75.5122 13.0509V14.8645H69.7928V13.0509H75.5122ZM71.2048 10.6673H73.5496V20.0075C73.5496 20.3227 73.5971 20.5645 73.6921 20.733C73.7914 20.897 73.921 21.0093 74.0807 21.0698C74.2405 21.1302 74.4176 21.1605 74.6119 21.1605C74.7587 21.1605 74.8926 21.1497 75.0135 21.1281C75.1387 21.1065 75.2337 21.087 75.2985 21.0698L75.6936 22.9028C75.5684 22.946 75.3891 22.9935 75.156 23.0453C74.9271 23.0972 74.6464 23.1274 74.3139 23.136C73.7266 23.1533 73.1977 23.0648 72.727 22.8705C72.2563 22.6718 71.8828 22.3652 71.6064 21.9507C71.3344 21.5361 71.2005 21.018 71.2048 20.3961V10.6673ZM81.7709 23.1943C80.7734 23.1943 79.9119 22.987 79.1865 22.5725C78.4653 22.1536 77.9104 21.562 77.5218 20.7977C77.1332 20.0291 76.9388 19.1244 76.9388 18.0838C76.9388 17.0603 77.1332 16.1622 77.5218 15.3892C77.9147 14.6119 78.4632 14.0074 79.167 13.5756C79.8709 13.1394 80.6978 12.9214 81.6478 12.9214C82.261 12.9214 82.8396 13.0207 83.3837 13.2193C83.9321 13.4136 84.4158 13.7159 84.8346 14.1261C85.2578 14.5364 85.5903 15.0589 85.8321 15.6936C86.074 16.3241 86.1949 17.0755 86.1949 17.9477V18.6667H78.04V17.0863H83.9472C83.9429 16.6372 83.8458 16.2377 83.6558 15.888C83.4658 15.5339 83.2002 15.2553 82.8591 15.0524C82.5222 14.8494 82.1293 14.748 81.6802 14.748C81.2009 14.748 80.7799 14.8645 80.4171 15.0977C80.0544 15.3266 79.7716 15.6289 79.5686 16.0045C79.37 16.3759 79.2685 16.784 79.2642 17.2288V18.6084C79.2642 19.187 79.37 19.6836 79.5816 20.0982C79.7932 20.5084 80.089 20.8236 80.469 21.0439C80.849 21.2598 81.2937 21.3677 81.8033 21.3677C82.1444 21.3677 82.4532 21.3202 82.7295 21.2252C83.0059 21.1259 83.2455 20.9813 83.4485 20.7913C83.6515 20.6013 83.8047 20.3659 83.9084 20.0852L86.0977 20.3314C85.9595 20.91 85.6961 21.4152 85.3075 21.847C84.9232 22.2745 84.4309 22.607 83.8307 22.8445C83.2304 23.0777 82.5438 23.1943 81.7709 23.1943ZM90.5233 17.1705V23H88.1785V13.0509H90.4197V14.7415H90.5363C90.7651 14.1844 91.13 13.7418 91.6309 13.4136C92.1361 13.0855 92.7601 12.9214 93.5028 12.9214C94.1894 12.9214 94.7875 13.0682 95.297 13.3618C95.8109 13.6555 96.2082 14.0808 96.4889 14.6378C96.7739 15.1949 96.9142 15.8707 96.9099 16.6652V23H94.5651V17.028C94.5651 16.363 94.3924 15.8426 94.0469 15.4669C93.7058 15.0912 93.233 14.9034 92.6284 14.9034C92.2182 14.9034 91.8533 14.9941 91.5338 15.1755C91.2185 15.3525 90.9702 15.6094 90.7889 15.9463C90.6118 16.2831 90.5233 16.6911 90.5233 17.1705ZM107.157 15.6807L105.019 15.9139C104.959 15.698 104.853 15.495 104.702 15.305C104.555 15.115 104.357 14.9617 104.106 14.8451C103.856 14.7285 103.549 14.6702 103.186 14.6702C102.698 14.6702 102.288 14.776 101.956 14.9876C101.627 15.1992 101.466 15.4734 101.47 15.8102C101.466 16.0995 101.571 16.3349 101.787 16.5163C102.007 16.6976 102.37 16.8466 102.875 16.9632L104.572 17.3259C105.514 17.5289 106.213 17.8506 106.671 18.291C107.133 18.7315 107.366 19.308 107.371 20.0205C107.366 20.6466 107.183 21.1993 106.82 21.6786C106.462 22.1536 105.963 22.525 105.324 22.7927C104.685 23.0605 103.951 23.1943 103.122 23.1943C101.904 23.1943 100.924 22.9395 100.181 22.43C99.4382 21.9161 98.9956 21.2015 98.8531 20.286L101.14 20.0658C101.243 20.5149 101.463 20.8539 101.8 21.0827C102.137 21.3116 102.575 21.426 103.115 21.426C103.672 21.426 104.119 21.3116 104.456 21.0827C104.797 20.8539 104.968 20.571 104.968 20.2342C104.968 19.9492 104.857 19.7139 104.637 19.5282C104.421 19.3425 104.085 19.2 103.627 19.1007L101.93 18.7444C100.975 18.5458 100.269 18.2111 99.8117 17.7405C99.354 17.2655 99.1273 16.6652 99.1316 15.9398C99.1273 15.3266 99.2935 14.7955 99.6303 14.3464C99.9715 13.893 100.444 13.5432 101.049 13.297C101.658 13.0466 102.359 12.9214 103.154 12.9214C104.32 12.9214 105.237 13.1697 105.907 13.6663C106.58 14.1628 106.997 14.8343 107.157 15.6807ZM109.304 23V13.0509H111.649V23H109.304ZM110.483 11.6389C110.112 11.6389 109.792 11.5158 109.524 11.2697C109.257 11.0192 109.123 10.7191 109.123 10.3693C109.123 10.0152 109.257 9.71511 109.524 9.46898C109.792 9.21852 110.112 9.0933 110.483 9.0933C110.859 9.0933 111.178 9.21852 111.442 9.46898C111.709 9.71511 111.843 10.0152 111.843 10.3693C111.843 10.7191 111.709 11.0192 111.442 11.2697C111.178 11.5158 110.859 11.6389 110.483 11.6389ZM118.4 23.1943C117.428 23.1943 116.586 22.9806 115.874 22.5531C115.161 22.1256 114.608 21.5275 114.216 20.7589C113.827 19.9902 113.633 19.092 113.633 18.0643C113.633 17.0366 113.827 16.1362 114.216 15.3633C114.608 14.5903 115.161 13.9901 115.874 13.5626C116.586 13.1351 117.428 12.9214 118.4 12.9214C119.371 12.9214 120.213 13.1351 120.926 13.5626C121.638 13.9901 122.189 14.5903 122.578 15.3633C122.971 16.1362 123.167 17.0366 123.167 18.0643C123.167 19.092 122.971 19.9902 122.578 20.7589C122.189 21.5275 121.638 22.1256 120.926 22.5531C120.213 22.9806 119.371 23.1943 118.4 23.1943ZM118.413 21.3159C118.94 21.3159 119.38 21.1712 119.734 20.8819C120.088 20.5883 120.352 20.1953 120.524 19.7031C120.701 19.2108 120.79 18.6624 120.79 18.0578C120.79 17.449 120.701 16.8984 120.524 16.4061C120.352 15.9095 120.088 15.5144 119.734 15.2208C119.38 14.9272 118.94 14.7803 118.413 14.7803C117.873 14.7803 117.424 14.9272 117.066 15.2208C116.711 15.5144 116.446 15.9095 116.269 16.4061C116.096 16.8984 116.01 17.449 116.01 18.0578C116.01 18.6624 116.096 19.2108 116.269 19.7031C116.446 20.1953 116.711 20.5883 117.066 20.8819C117.424 21.1712 117.873 21.3159 118.413 21.3159ZM127.502 17.1705V23H125.157V13.0509H127.398V14.7415H127.515C127.744 14.1844 128.109 13.7418 128.61 13.4136C129.115 13.0855 129.739 12.9214 130.482 12.9214C131.168 12.9214 131.766 13.0682 132.276 13.3618C132.79 13.6555 133.187 14.0808 133.468 14.6378C133.753 15.1949 133.893 15.8707 133.889 16.6652V23H131.544V17.028C131.544 16.363 131.371 15.8426 131.026 15.4669C130.685 15.0912 130.212 14.9034 129.607 14.9034C129.197 14.9034 128.832 14.9941 128.512 15.1755C128.197 15.3525 127.949 15.6094 127.768 15.9463C127.591 16.2831 127.502 16.6911 127.502 17.1705ZM49.1985 40V29.0909H53.1935C53.9677 29.0909 54.6087 29.2187 55.1165 29.4744C55.6243 29.7266 56.0043 30.0692 56.2564 30.5025C56.5085 30.9322 56.6346 31.4169 56.6346 31.9567C56.6346 32.4112 56.5511 32.7947 56.3842 33.1072C56.2173 33.4162 55.9936 33.6648 55.7131 33.853C55.4361 34.0376 55.1307 34.1726 54.7969 34.2578V34.3643C55.1591 34.3821 55.5124 34.4993 55.8569 34.7159C56.2049 34.929 56.4925 35.2326 56.7198 35.6268C56.9471 36.021 57.0607 36.5004 57.0607 37.065C57.0607 37.6225 56.9293 38.1232 56.6665 38.5671C56.4073 39.0075 56.006 39.3572 55.4627 39.6165C54.9194 39.8722 54.2251 40 53.38 40H49.1985ZM50.8445 38.5884H53.2202C54.0085 38.5884 54.5732 38.4357 54.9141 38.1303C55.255 37.8249 55.4254 37.4432 55.4254 36.9851C55.4254 36.6406 55.3384 36.3246 55.1644 36.0369C54.9904 35.7493 54.7418 35.5202 54.4187 35.3498C54.0991 35.1793 53.7191 35.0941 53.2788 35.0941H50.8445V38.5884ZM50.8445 33.8104H53.0497C53.419 33.8104 53.7511 33.7393 54.0458 33.5973C54.3441 33.4553 54.5803 33.2564 54.7543 33.0007C54.9318 32.7415 55.0206 32.4361 55.0206 32.0845C55.0206 31.6335 54.8626 31.2553 54.5465 30.9499C54.2305 30.6445 53.7457 30.4918 53.0923 30.4918H50.8445V33.8104ZM58.8851 40V31.8182H60.4245V33.1179H60.5098C60.6589 32.6776 60.9217 32.3313 61.2981 32.0792C61.6781 31.8235 62.1078 31.6957 62.5872 31.6957C62.6866 31.6957 62.8038 31.6992 62.9387 31.7063C63.0772 31.7134 63.1855 31.7223 63.2637 31.733V33.2564C63.1998 33.2386 63.0861 33.2191 62.9228 33.1978C62.7594 33.1729 62.5961 33.1605 62.4327 33.1605C62.0563 33.1605 61.7207 33.2404 61.426 33.4002C61.1348 33.5565 60.9039 33.7749 60.7335 34.0554C60.563 34.3324 60.4778 34.6484 60.4778 35.0036V40H58.8851ZM66.9498 40.1811C66.4313 40.1811 65.9625 40.0852 65.5435 39.8935C65.1245 39.6982 64.7924 39.4158 64.5474 39.0465C64.3059 38.6772 64.1852 38.2244 64.1852 37.6882C64.1852 37.2266 64.274 36.8466 64.4515 36.5483C64.6291 36.25 64.8688 36.0138 65.1706 35.8398C65.4725 35.6658 65.8098 35.5344 66.1827 35.4457C66.5556 35.3569 66.9355 35.2894 67.3226 35.2433C67.8127 35.1864 68.2104 35.1403 68.5158 35.1048C68.8212 35.0657 69.0431 35.0036 69.1816 34.9183C69.3201 34.8331 69.3894 34.6946 69.3894 34.5028V34.4656C69.3894 34.0004 69.258 33.6399 68.9952 33.3842C68.736 33.1286 68.3489 33.0007 67.834 33.0007C67.2978 33.0007 66.8752 33.1197 66.5662 33.3576C66.2608 33.592 66.0495 33.853 65.9324 34.1406L64.4355 33.7997C64.6131 33.3026 64.8723 32.9013 65.2132 32.5959C65.5577 32.2869 65.9537 32.0632 66.4011 31.9247C66.8485 31.7827 67.3191 31.7116 67.8127 31.7116C68.1394 31.7116 68.4856 31.7507 68.8514 31.8288C69.2207 31.9034 69.5652 32.0419 69.8848 32.2443C70.2079 32.4467 70.4725 32.7362 70.6784 33.1126C70.8844 33.4854 70.9874 33.9702 70.9874 34.5668V40H69.432V38.8814H69.3681C69.2651 39.0874 69.1106 39.2898 68.9047 39.4886C68.6987 39.6875 68.4341 39.8526 68.111 39.984C67.7878 40.1154 67.4007 40.1811 66.9498 40.1811ZM67.296 38.9027C67.7363 38.9027 68.1127 38.8157 68.4252 38.6417C68.7413 38.4677 68.981 38.2404 69.1444 37.9599C69.3113 37.6758 69.3947 37.3722 69.3947 37.049V35.9943C69.3379 36.0511 69.2278 36.1044 69.0645 36.1541C68.9047 36.2003 68.7218 36.2411 68.5158 36.2766C68.3098 36.3086 68.1092 36.3388 67.9139 36.3672C67.7186 36.392 67.5552 36.4134 67.4238 36.4311C67.1149 36.4702 66.8326 36.5359 66.5769 36.6282C66.3248 36.7205 66.1223 36.8537 65.9696 37.0277C65.8205 37.1982 65.7459 37.4254 65.7459 37.7095C65.7459 38.1037 65.8915 38.402 66.1827 38.6044C66.4739 38.8033 66.845 38.9027 67.296 38.9027ZM79.8151 31.8182L76.8481 40H75.1436L72.1713 31.8182H73.8811L75.9532 38.1143H76.0384L78.1052 31.8182H79.8151ZM84.5598 40.1651C83.7537 40.1651 83.0595 39.9929 82.4771 39.6484C81.8983 39.3004 81.4508 38.8121 81.1348 38.1836C80.8223 37.5515 80.666 36.8111 80.666 35.9624C80.666 35.1243 80.8223 34.3857 81.1348 33.7464C81.4508 33.1072 81.8912 32.6083 82.4558 32.2496C83.024 31.891 83.688 31.7116 84.448 31.7116C84.9096 31.7116 85.3571 31.788 85.7903 31.9407C86.2235 32.0934 86.6124 32.3331 86.9569 32.6598C87.3013 32.9865 87.573 33.4109 87.7718 33.9329C87.9707 34.4513 88.0701 35.0817 88.0701 35.8239V36.3885H81.5662V35.1953H86.5094C86.5094 34.7763 86.4242 34.4052 86.2537 34.082C86.0833 33.7553 85.8436 33.4979 85.5346 33.3097C85.2292 33.1214 84.8706 33.0273 84.4586 33.0273C84.0112 33.0273 83.6206 33.1374 83.2868 33.3576C82.9565 33.5742 82.7008 33.8583 82.5197 34.2099C82.3422 34.5579 82.2534 34.9361 82.2534 35.3445V36.2766C82.2534 36.8235 82.3493 37.2887 82.541 37.6722C82.7363 38.0558 83.008 38.3487 83.356 38.5511C83.704 38.75 84.1106 38.8494 84.5758 38.8494C84.8777 38.8494 85.1529 38.8068 85.4015 38.7216C85.65 38.6328 85.8649 38.5014 86.046 38.3274C86.2271 38.1534 86.3656 37.9386 86.4615 37.6829L87.9689 37.9545C87.8482 38.3984 87.6316 38.7873 87.3191 39.1211C87.0101 39.4513 86.6213 39.7088 86.1525 39.8935C85.6873 40.0746 85.1564 40.1651 84.5598 40.1651ZM93.9348 40V29.0909H97.9299C98.704 29.0909 99.345 29.2187 99.8528 29.4744C100.361 29.7266 100.741 30.0692 100.993 30.5025C101.245 30.9322 101.371 31.4169 101.371 31.9567C101.371 32.4112 101.287 32.7947 101.121 33.1072C100.954 33.4162 100.73 33.6648 100.449 33.853C100.172 34.0376 99.867 34.1726 99.5332 34.2578V34.3643C99.8954 34.3821 100.249 34.4993 100.593 34.7159C100.941 34.929 101.229 35.2326 101.456 35.6268C101.683 36.021 101.797 36.5004 101.797 37.065C101.797 37.6225 101.666 38.1232 101.403 38.5671C101.144 39.0075 100.742 39.3572 100.199 39.6165C99.6557 39.8722 98.9615 40 98.1163 40H93.9348ZM95.5808 38.5884H97.9565C98.7449 38.5884 99.3095 38.4357 99.6504 38.1303C99.9913 37.8249 100.162 37.4432 100.162 36.9851C100.162 36.6406 100.075 36.3246 99.9007 36.0369C99.7267 35.7493 99.4782 35.5202 99.155 35.3498C98.8354 35.1793 98.4554 35.0941 98.0151 35.0941H95.5808V38.5884ZM95.5808 33.8104H97.786C98.1554 33.8104 98.4874 33.7393 98.7821 33.5973C99.0804 33.4553 99.3166 33.2564 99.4906 33.0007C99.6681 32.7415 99.7569 32.4361 99.7569 32.0845C99.7569 31.6335 99.5989 31.2553 99.2828 30.9499C98.9668 30.6445 98.4821 30.4918 97.8287 30.4918H95.5808V33.8104ZM103.621 40V31.8182H105.161V33.1179H105.246C105.395 32.6776 105.658 32.3313 106.034 32.0792C106.414 31.8235 106.844 31.6957 107.324 31.6957C107.423 31.6957 107.54 31.6992 107.675 31.7063C107.814 31.7134 107.922 31.7223 108 31.733V33.2564C107.936 33.2386 107.822 33.2191 107.659 33.1978C107.496 33.1729 107.332 33.1605 107.169 33.1605C106.793 33.1605 106.457 33.2404 106.162 33.4002C105.871 33.5565 105.64 33.7749 105.47 34.0554C105.299 34.3324 105.214 34.6484 105.214 35.0036V40H103.621ZM112.532 40.1651C111.765 40.1651 111.095 39.9893 110.524 39.6378C109.952 39.2862 109.508 38.7944 109.192 38.1623C108.876 37.5302 108.718 36.7915 108.718 35.9464C108.718 35.0977 108.876 34.3555 109.192 33.7198C109.508 33.0842 109.952 32.5906 110.524 32.239C111.095 31.8874 111.765 31.7116 112.532 31.7116C113.299 31.7116 113.968 31.8874 114.54 32.239C115.112 32.5906 115.555 33.0842 115.872 33.7198C116.188 34.3555 116.346 35.0977 116.346 35.9464C116.346 36.7915 116.188 37.5302 115.872 38.1623C115.555 38.7944 115.112 39.2862 114.54 39.6378C113.968 39.9893 113.299 40.1651 112.532 40.1651ZM112.537 38.8281C113.034 38.8281 113.446 38.6967 113.773 38.4339C114.1 38.1712 114.341 37.8214 114.497 37.3846C114.657 36.9478 114.737 36.4666 114.737 35.9411C114.737 35.419 114.657 34.9396 114.497 34.5028C114.341 34.0625 114.1 33.7092 113.773 33.4428C113.446 33.1765 113.034 33.0433 112.537 33.0433C112.036 33.0433 111.621 33.1765 111.291 33.4428C110.964 33.7092 110.721 34.0625 110.561 34.5028C110.405 34.9396 110.326 35.419 110.326 35.9411C110.326 36.4666 110.405 36.9478 110.561 37.3846C110.721 37.8214 110.964 38.1712 111.291 38.4339C111.621 38.6967 112.036 38.8281 112.537 38.8281ZM119.648 40L117.241 31.8182H118.886L120.49 37.8267H120.57L122.178 31.8182H123.824L125.422 37.8001H125.502L127.095 31.8182H128.741L126.339 40H124.714L123.052 34.0927H122.929L121.267 40H119.648ZM136.383 33.8157L134.94 34.0714C134.879 33.8867 134.784 33.7109 134.652 33.544C134.524 33.3771 134.35 33.2404 134.13 33.1339C133.91 33.0273 133.635 32.9741 133.305 32.9741C132.854 32.9741 132.477 33.0753 132.175 33.2777C131.873 33.4766 131.722 33.734 131.722 34.0501C131.722 34.3235 131.824 34.5437 132.026 34.7106C132.229 34.8775 132.555 35.0142 133.006 35.1207L134.306 35.419C135.059 35.593 135.62 35.8612 135.989 36.2234C136.358 36.5856 136.543 37.0561 136.543 37.6349C136.543 38.125 136.401 38.5618 136.117 38.9453C135.836 39.3253 135.444 39.6236 134.94 39.8402C134.439 40.0568 133.858 40.1651 133.198 40.1651C132.282 40.1651 131.534 39.9698 130.955 39.5792C130.377 39.185 130.021 38.6257 129.89 37.9013L131.43 37.6669C131.525 38.0682 131.722 38.3718 132.021 38.5778C132.319 38.7802 132.708 38.8814 133.187 38.8814C133.709 38.8814 134.127 38.7731 134.439 38.5565C134.752 38.3363 134.908 38.0682 134.908 37.7521C134.908 37.4964 134.812 37.2816 134.62 37.1076C134.432 36.9336 134.143 36.8022 133.752 36.7134L132.367 36.4098C131.604 36.2358 131.039 35.9588 130.673 35.5788C130.311 35.1989 130.13 34.7177 130.13 34.1353C130.13 33.6523 130.265 33.2298 130.535 32.8675C130.805 32.5053 131.177 32.223 131.653 32.0206C132.129 31.8146 132.674 31.7116 133.289 31.7116C134.173 31.7116 134.869 31.9034 135.377 32.2869C135.884 32.6669 136.22 33.1765 136.383 33.8157ZM141.821 40.1651C141.014 40.1651 140.32 39.9929 139.738 39.6484C139.159 39.3004 138.712 38.8121 138.396 38.1836C138.083 37.5515 137.927 36.8111 137.927 35.9624C137.927 35.1243 138.083 34.3857 138.396 33.7464C138.712 33.1072 139.152 32.6083 139.717 32.2496C140.285 31.891 140.949 31.7116 141.709 31.7116C142.17 31.7116 142.618 31.788 143.051 31.9407C143.484 32.0934 143.873 32.3331 144.218 32.6598C144.562 32.9865 144.834 33.4109 145.033 33.9329C145.231 34.4513 145.331 35.0817 145.331 35.8239V36.3885H138.827V35.1953H143.77C143.77 34.7763 143.685 34.4052 143.514 34.082C143.344 33.7553 143.104 33.4979 142.795 33.3097C142.49 33.1214 142.131 33.0273 141.719 33.0273C141.272 33.0273 140.881 33.1374 140.547 33.3576C140.217 33.5742 139.962 33.8583 139.78 34.2099C139.603 34.5579 139.514 34.9361 139.514 35.3445V36.2766C139.514 36.8235 139.61 37.2887 139.802 37.6722C139.997 38.0558 140.269 38.3487 140.617 38.5511C140.965 38.75 141.371 38.8494 141.837 38.8494C142.138 38.8494 142.414 38.8068 142.662 38.7216C142.911 38.6328 143.126 38.5014 143.307 38.3274C143.488 38.1534 143.626 37.9386 143.722 37.6829L145.23 37.9545C145.109 38.3984 144.892 38.7873 144.58 39.1211C144.271 39.4513 143.882 39.7088 143.413 39.8935C142.948 40.0746 142.417 40.1651 141.821 40.1651ZM147.098 40V31.8182H148.637V33.1179H148.723C148.872 32.6776 149.135 32.3313 149.511 32.0792C149.891 31.8235 150.321 31.6957 150.8 31.6957C150.9 31.6957 151.017 31.6992 151.152 31.7063C151.29 31.7134 151.398 31.7223 151.477 31.733V33.2564C151.413 33.2386 151.299 33.2191 151.136 33.1978C150.972 33.1729 150.809 33.1605 150.646 33.1605C150.269 33.1605 149.934 33.2404 149.639 33.4002C149.348 33.5565 149.117 33.7749 148.946 34.0554C148.776 34.3324 148.691 34.6484 148.691 35.0036V40H147.098Z" fill="white"/>
<defs>
<clipPath id="clip0_30300_18396">
<rect width="26" height="30.5703" fill="white" transform="translate(12 10)"/>
</clipPath>
</defs>
</svg>
